<svg width="48" height="48" viewBox="0 0 48 48" fill="none" xmlns="http://www.w3.org/2000/svg">
<path fill-rule="evenodd" clip-rule="evenodd" d="M18.9068 0.484917C15.2854 1.32409 12.6504 2.46739 9.91908 4.38555C5.62954 7.3983 2.65731 11.4224 0.990867 16.4752C0.149467 19.0266 0 20.1227 0 23.7545C0 27.3863 0.149467 28.4824 0.990867 31.0337C2.72014 36.2766 5.84779 40.3977 10.4162 43.4536C14.5823 46.2399 18.2249 47.3089 23.5544 47.3089C27.2029 47.3089 28.2782 47.1609 30.8846 46.302C38.1207 43.9169 43.7193 38.3052 46.1179 31.0337C46.9593 28.4824 47.1087 27.3863 47.1087 23.7545C47.1087 20.1227 46.9593 19.0266 46.1179 16.4752C44.3886 11.2324 41.261 7.11127 36.6926 4.05538C31.659 0.689039 24.3545 -0.777369 18.9068 0.484917ZM30.2469 11.8566V14.4593H28.5492C25.8826 14.4593 25.4134 14.8783 25.4134 17.2609V19.2928H27.8127H30.212L30.0197 21.2448C29.6513 24.9837 29.7316 24.8699 27.4587 24.8699H25.4287L25.3279 32.5849L25.2275 40.2999H22.0671H18.9068L18.8064 32.5849L18.7056 24.8699H17.2262H15.7464V22.0814V19.2928H17.2336H18.7209L18.7372 16.969C18.7551 14.4221 19.3886 12.2307 20.4516 11.0376C21.6269 9.71875 23.19 9.28374 26.8077 9.2685L30.2469 9.25399V11.8566Z" fill="#FFE000"/>
</svg>
