<svg width="48" height="48" viewBox="0 0 48 48" fill="none" xmlns="http://www.w3.org/2000/svg">
<path fill-rule="evenodd" clip-rule="evenodd" d="M9.96787 0.45668C6.14235 1.51261 3.2337 4.0119 1.48025 7.75005L0.513184 9.8121V23.7627V37.7133L1.72528 40.175C3.13554 43.0405 5.15148 45.0066 8.09062 46.3849L10.1802 47.3646H24.1308H38.0813L40.5431 46.1526C43.4086 44.7423 45.3747 42.7263 46.753 39.7872L47.7327 37.6977V23.7549V9.8121L46.753 7.72254C45.3751 4.78415 43.4082 2.76784 40.5446 1.3572L38.084 0.145106L24.8755 0.0662825C15.1784 0.00865236 11.2157 0.112387 9.96787 0.45668ZM39.9266 7.17747C40.42 7.67123 40.9327 8.5078 41.0655 9.03651C41.9879 12.7129 37.5419 15.294 34.8767 12.6293C32.4868 10.2393 34.1201 6.27993 37.4965 6.27993C38.6208 6.27993 39.2682 6.519 39.9266 7.17747ZM36.7488 9.45888C36.3554 9.93293 36.371 10.1356 36.8362 10.6011C37.3426 11.1071 37.4671 11.1012 38.0256 10.5427C38.5078 10.0605 38.5517 9.80206 38.2189 9.40088C37.6657 8.73423 37.3396 8.74724 36.7488 9.45888ZM29.5093 11.9927C32.1019 13.1799 34.7053 15.8008 35.9494 18.4767C36.7711 20.2439 36.9343 21.1176 36.9343 23.7549C36.9343 27.6239 35.8743 30.2418 33.2419 32.8738C30.6099 35.5062 27.992 36.5662 24.123 36.5662C20.2539 36.5662 17.636 35.5062 15.004 32.8738C12.3716 30.2418 11.3116 27.6239 11.3116 23.7549C11.3116 21.1176 11.4748 20.2439 12.2965 18.4767C13.9462 14.9282 17.3713 12.0507 21.0496 11.1227C23.3102 10.5527 27.248 10.9576 29.5093 11.9927ZM20.0331 14.4891C16.2923 16.1804 14.0882 19.62 14.0961 23.7549C14.1165 34.6239 28.9063 37.7594 33.3888 27.8448C35.0348 24.2044 34.0457 19.1842 31.1397 16.4329C28.2872 13.7313 23.544 12.9014 20.0331 14.4891Z" fill="#FFE000"/>
</svg>
