<svg width="48" height="48" viewBox="0 0 48 48" fill="none" xmlns="http://www.w3.org/2000/svg">
<path fill-rule="evenodd" clip-rule="evenodd" d="M20.5304 0.318639C15.5519 1.22659 10.0376 4.1371 7.06688 7.42537C4.76985 9.96816 2.81972 13.3074 1.78238 16.4755C0.950276 19.0172 0.79895 20.1363 0.79895 23.7548C0.79895 27.3732 0.950276 28.4923 1.78238 31.034C3.4953 36.265 6.62703 40.3946 11.2006 43.4539C15.3507 46.2294 18.9945 47.2946 24.3388 47.2946C27.9744 47.2946 29.0719 47.1448 31.669 46.2952C38.8966 43.9298 44.5172 38.2965 46.8953 31.034C47.7274 28.4923 47.8787 27.3732 47.8787 23.7548C47.8787 20.1363 47.7274 19.0172 46.8953 16.4755C45.1823 11.2446 42.0506 7.11491 37.477 4.05568C32.7922 0.922454 25.7443 -0.631701 20.5304 0.318639ZM16.8759 10.5419C19.6786 11.9912 18.5115 15.9468 15.2816 15.9468C11.8673 15.9468 10.7797 12.0477 13.7423 10.4273C14.7629 9.86888 15.6367 9.90086 16.8759 10.5419ZM34.0623 18.187C35.8094 18.6725 37.9652 21.0443 38.3418 22.8959C38.5006 23.6752 38.6356 26.8222 38.6419 29.8896L38.6534 35.4667L35.7719 35.5753L32.8904 35.6838L32.8696 30.7418C32.845 25.0427 32.4383 23.3804 30.9384 22.8543C29.5832 22.3791 28.0197 22.9472 27.4196 24.1329C27.1106 24.7438 26.9504 26.849 26.947 30.3544L26.9415 35.6526H23.9603H20.9788L21.0788 27.0081L21.1785 18.3636L24.06 18.255L26.9415 18.1464V19.2923V20.4386L27.9639 19.4842C29.5906 17.9657 31.6716 17.5233 34.0623 18.187ZM18.0181 26.9151V35.6526H15.2295H12.441V26.9151V18.1777H15.2295H18.0181V26.9151Z" fill="#FFE000"/>
</svg>
