<svg width="48" height="48" viewBox="0 0 48 48" fill="none" xmlns="http://www.w3.org/2000/svg">
<path fill-rule="evenodd" clip-rule="evenodd" d="M18.7023 0.537218C10.0146 2.40295 2.50003 9.9867 0.669251 18.7353C-2.86218 35.6139 12.0484 50.5245 28.927 46.9931C35.6638 45.5832 41.9191 40.7434 45.0255 34.5371C48.5763 27.4427 48.5763 20.0668 45.0255 12.9723C40.2377 3.40608 29.3319 -1.74568 18.7023 0.537218ZM21.863 14.8321L25.4383 20.0378L29.9082 14.8321C33.7583 10.3481 34.5286 9.62605 35.4637 9.62605C36.0605 9.62605 36.549 9.70264 36.549 9.79597C36.549 9.88929 34.2899 12.5771 31.5285 15.7687L26.5084 21.5719L30.4953 27.404C32.6878 30.6116 35.1142 34.1419 35.8872 35.2495C36.6602 36.3568 37.2927 37.4027 37.2927 37.5733C37.2927 37.744 35.5452 37.8834 33.4091 37.8834H29.5252L25.88 32.5048C23.8749 29.5467 22.1322 27.1207 22.0077 27.1136C21.8827 27.1066 19.7076 29.5215 17.1742 32.4799C13.2817 37.0245 12.4042 37.8604 11.5141 37.8711C10.9345 37.8778 10.5162 37.7232 10.5846 37.5272C10.6527 37.3309 13.0002 34.5007 15.8018 31.2374L20.8948 25.3041L15.7089 17.7515C12.8564 13.5977 10.5225 10.07 10.5225 9.91271C10.5225 9.75507 12.2696 9.62605 14.4053 9.62605H18.2877L21.863 14.8321ZM15.7077 14.7384C16.9477 16.5279 20.7777 22.0072 24.2195 26.9151L30.4767 35.8385L32.458 35.953L34.4394 36.0675L33.5173 34.8376C33.0105 34.1613 29.1196 28.6302 24.8713 22.5464L17.147 11.4851H15.3002H13.4535L15.7077 14.7384Z" fill="#FFE000"/>
</svg>
