<svg width="102" height="63" viewBox="0 0 102 63" fill="none" xmlns="http://www.w3.org/2000/svg">
<g clip-path="url(#clip0_118_5909)">
<path d="M34.415 40.7787H12.8787V63H34.415V40.7787Z" fill="#FFE000"/>
<path d="M0 27.4904V62.9999H8.39002V36.1463H34.4151V27.4904H0Z" fill="#050505"/>
<path d="M12.6318 -0.00077996L6.13623 5.479L27.921 32.9705L34.4165 27.4907L12.6318 -0.00077996Z" fill="#050505"/>
<path d="M48.853 62.4503L49.1736 61.2339C49.399 61.4365 49.6467 61.5929 49.9168 61.7015C50.1869 61.81 50.4595 61.8647 50.7337 61.8647C50.9275 61.8647 51.0742 61.8323 51.1761 61.7681C51.2772 61.704 51.3277 61.6109 51.3277 61.4886C51.3277 61.2886 51.1239 61.1398 50.7163 61.0415C50.5837 61.0091 50.476 60.9808 50.3957 60.9569C49.9334 60.8261 49.597 60.6534 49.3874 60.4406C49.1778 60.2277 49.0734 59.9508 49.0734 59.6106C49.0734 59.172 49.2333 58.8224 49.5523 58.56C49.8712 58.2975 50.3045 58.1659 50.8505 58.1659C51.1305 58.1659 51.4163 58.1992 51.7063 58.2668C51.9971 58.3343 52.2937 58.4377 52.5969 58.5779L52.2763 59.6738C52.0708 59.5311 51.8629 59.4216 51.6525 59.3473C51.4412 59.2729 51.2308 59.2353 51.0195 59.2353C50.843 59.2353 50.7105 59.2635 50.621 59.3199C50.5315 59.3763 50.4868 59.4584 50.4868 59.5661C50.4868 59.7268 50.6889 59.8627 51.0932 59.973C51.186 59.9995 51.2548 60.0192 51.3012 60.0311C51.8356 60.1893 52.2084 60.3748 52.4172 60.5885C52.6268 60.8013 52.7311 61.0903 52.7311 61.4544C52.7311 61.9169 52.5588 62.2904 52.215 62.5751C51.8712 62.8598 51.4155 63.0025 50.8497 63.0025C50.4653 63.0025 50.1082 62.9572 49.7793 62.8657C49.4512 62.7726 49.1422 62.6349 48.853 62.4503Z" fill="black"/>
<path d="M65.3738 63V60.5355C65.3738 60.1449 65.3266 59.8747 65.233 59.726C65.1394 59.5773 64.9762 59.502 64.745 59.502C64.4559 59.502 64.2554 59.6055 64.1427 59.8132C64.03 60.0209 63.9737 60.4449 63.9737 61.086V63.0009H62.4824V60.5364C62.4824 60.1397 62.436 59.8688 62.3441 59.7226C62.2513 59.5764 62.0897 59.5038 61.8586 59.5038C61.5695 59.5038 61.3673 59.6055 61.2513 59.8098C61.1362 60.0141 61.0782 60.4398 61.0782 61.0869V63.0017H59.5786V58.4839H61.0956V59.2712C61.2778 58.9524 61.4883 58.7173 61.726 58.5669C61.9646 58.4164 62.2455 58.3412 62.5694 58.3412C62.9248 58.3412 63.2156 58.4121 63.4426 58.5532C63.6696 58.6951 63.832 58.9071 63.9306 59.1909C64.1013 58.9045 64.3092 58.6917 64.5545 58.5515C64.7997 58.4113 65.0888 58.3412 65.4211 58.3412C65.6837 58.3412 65.9148 58.3865 66.1128 58.4771C66.3108 58.5686 66.4765 58.7045 66.6091 58.8866C66.716 59.0293 66.7922 59.1969 66.8369 59.3875C66.8817 59.5781 66.904 59.8884 66.904 60.3175V60.4159V63.0009H65.3738V63Z" fill="black"/>
<path d="M78.1463 58.3078V62.9999H76.7288V62.0921C76.5267 62.405 76.2988 62.6349 76.0461 62.7811C75.7934 62.9273 75.496 62.9999 75.1555 62.9999C74.5714 62.9999 74.105 62.7803 73.7554 62.34C73.4058 61.8998 73.231 61.3108 73.231 60.5705C73.231 59.8345 73.4141 59.249 73.7794 58.8147C74.1448 58.3805 74.6369 58.1642 75.2558 58.1642C75.5855 58.1642 75.8688 58.2368 76.1074 58.3813C76.346 58.5258 76.5498 58.7489 76.7205 59.0498V58.3078H78.1463ZM76.7901 60.5628C76.7901 60.2106 76.699 59.932 76.5167 59.7268C76.3344 59.5208 76.0859 59.4182 75.7711 59.4182C75.4563 59.4182 75.2085 59.5208 75.0279 59.7242C74.8473 59.9286 74.757 60.2081 74.757 60.5628C74.757 60.915 74.8482 61.192 75.0304 61.3946C75.2127 61.5972 75.4596 61.6989 75.7719 61.6989C76.0867 61.6989 76.3353 61.5972 76.5175 61.3946C76.699 61.192 76.7901 60.9142 76.7901 60.5628Z" fill="black"/>
<path d="M86.4419 62.9999V58.3078H87.8984V59.372C88.0483 58.9848 88.2538 58.6942 88.5139 58.5001C88.7741 58.3061 89.0889 58.2095 89.4592 58.2095C89.5197 58.2095 89.581 58.212 89.6431 58.2163C89.7053 58.2206 89.7682 58.2274 89.832 58.236L89.6846 59.6849C89.5918 59.6524 89.5006 59.6285 89.4112 59.6131C89.3217 59.5986 89.2347 59.5909 89.151 59.5909C88.7757 59.5909 88.4858 59.7097 88.2819 59.9465C88.0781 60.1833 87.9762 60.5201 87.9762 60.9552V62.9991H86.4419V62.9999Z" fill="black"/>
<path d="M99.8237 62.9999V59.4353H99.1692V58.3078H99.8237V56.9614H101.346V58.3078H102V59.4353H101.346V62.9999H99.8237Z" fill="black"/>
<path d="M60.4716 27.4904H48.853V51.4666H60.4716C63.6803 51.4666 66.5842 50.1245 68.6877 47.9558C70.7895 45.7862 72.0902 42.7892 72.0902 39.4785C72.0902 32.857 66.889 27.4904 60.4716 27.4904ZM63.885 43.0004C63.0109 43.9014 61.8047 44.4587 60.4716 44.4587H55.6449V34.4974H60.4716C63.1377 34.4974 65.2984 36.7268 65.2984 39.4776C65.2984 40.853 64.7582 42.0985 63.885 43.0004Z" fill="black"/>
<path d="M81.018 37.7612H74.2261V51.4667H81.018V37.7612Z" fill="black"/>
<path d="M81.0536 32.215C81.0536 34.1709 79.5176 35.7557 77.622 35.7557C75.7273 35.7557 74.1904 34.1709 74.1904 32.215C74.1904 30.26 75.7264 28.6743 77.622 28.6743C79.5167 28.6743 81.0536 30.2592 81.0536 32.215Z" fill="#FFE000"/>
<path d="M102 37.7612H95.208V51.4667H102V37.7612Z" fill="black"/>
<path d="M95.2082 39.9487C93.9166 38.3561 91.9754 37.344 89.8048 37.344C85.9134 37.344 82.7603 40.5983 82.7603 44.6135C82.7603 48.6286 85.9143 51.8829 89.8048 51.8829C91.9746 51.8829 93.9166 50.8708 95.2082 49.2783C96.233 48.0157 96.8502 46.3889 96.8502 44.6135C96.8502 42.838 96.233 41.2112 95.2082 39.9487ZM92.2107 47.7071C90.5554 47.7071 89.2133 46.3223 89.2133 44.6135C89.2133 42.9055 90.5546 41.5198 92.2107 41.5198C93.8669 41.5198 95.209 42.9047 95.209 44.6135C95.2082 46.3214 93.8669 47.7071 92.2107 47.7071Z" fill="black"/>
</g>
<defs>
<clipPath id="clip0_118_5909">
<rect width="102" height="63" fill="white"/>
</clipPath>
</defs>
</svg>
