<?xml version="1.0" encoding="utf-8"?>
<!-- Generator: Adobe Illustrator 28.0.0, SVG Export Plug-In . SVG Version: 6.00 Build 0)  -->
<svg version="1.1" id="Layer_1" xmlns="http://www.w3.org/2000/svg" xmlns:xlink="http://www.w3.org/1999/xlink" x="0px" y="0px"
	 viewBox="0 0 102 62" style="enable-background:new 0 0 102 62;" xml:space="preserve">
<style type="text/css">
	.st0{fill:#FEDF00;}
</style>
<path d="M24.37,0H3.72v41.31h20.65c5.7,0,10.87-2.31,14.61-6.05c3.74-3.74,6.05-8.9,6.05-14.61C45.03,9.25,35.78,0,24.37,0z
	 M30.44,26.72c-1.55,1.55-3.7,2.51-6.07,2.51h-8.58V12.07h8.58c4.74,0,8.58,3.84,8.58,8.58C32.95,23.02,31.99,25.17,30.44,26.72z"/>
<rect x="48.82" y="17.7" width="12.07" height="23.61"/>
<circle class="st0" cx="54.86" cy="8.14" r="6.1"/>
<path d="M86.12,17.7v3.77c0,0,0,0,0,0c-2.3-2.74-5.75-4.49-9.61-4.49c-6.92,0-12.52,5.61-12.52,12.52c0,6.92,5.61,12.52,12.52,12.52
	c3.86,0,7.31-1.74,9.61-4.49c0,0,0,0,0,0v3.77H98.2V17.7H86.12z M80.79,34.83c-2.94,0-5.33-2.39-5.33-5.33
	c0-2.94,2.38-5.33,5.33-5.33c2.94,0,5.33,2.39,5.33,5.33C86.12,32.45,83.74,34.83,80.79,34.83z"/>
<g>
	<path d="M3.73,61.05l0.57-2.1c0.4,0.35,0.84,0.62,1.32,0.81c0.48,0.19,0.97,0.28,1.45,0.28c0.34,0,0.61-0.06,0.79-0.17
		c0.18-0.11,0.27-0.27,0.27-0.48c0-0.34-0.36-0.6-1.09-0.77c-0.24-0.06-0.43-0.11-0.57-0.15c-0.82-0.23-1.42-0.52-1.79-0.89
		c-0.37-0.37-0.56-0.84-0.56-1.43c0-0.76,0.28-1.36,0.85-1.81c0.57-0.45,1.34-0.68,2.31-0.68c0.5,0,1.01,0.06,1.52,0.17
		c0.52,0.12,1.04,0.29,1.58,0.54l-0.57,1.89c-0.37-0.25-0.74-0.43-1.11-0.56c-0.38-0.13-0.75-0.19-1.13-0.19
		c-0.31,0-0.55,0.05-0.71,0.15c-0.16,0.1-0.24,0.24-0.24,0.42c0,0.28,0.36,0.51,1.08,0.7c0.16,0.05,0.29,0.08,0.37,0.1
		c0.95,0.27,1.61,0.59,1.99,0.96c0.37,0.37,0.56,0.87,0.56,1.49c0,0.8-0.31,1.44-0.92,1.93C9.11,61.75,8.3,62,7.29,62
		c-0.68,0-1.32-0.08-1.9-0.24C4.8,61.61,4.25,61.37,3.73,61.05z"/>
	<path d="M33.12,62v-4.25c0-0.67-0.08-1.14-0.25-1.4c-0.17-0.26-0.46-0.39-0.87-0.39c-0.51,0-0.87,0.18-1.07,0.54
		c-0.2,0.36-0.3,1.09-0.3,2.19V62h-2.65v-4.25c0-0.68-0.08-1.15-0.25-1.4c-0.16-0.25-0.45-0.38-0.86-0.38
		c-0.51,0-0.87,0.18-1.08,0.53c-0.21,0.35-0.31,1.09-0.31,2.2V62h-2.67v-7.79h2.7v1.36c0.32-0.55,0.7-0.96,1.12-1.21
		c0.42-0.26,0.92-0.39,1.5-0.39c0.63,0,1.15,0.12,1.55,0.37c0.4,0.24,0.69,0.61,0.87,1.1c0.3-0.49,0.67-0.86,1.11-1.1
		c0.44-0.24,0.95-0.36,1.54-0.36c0.47,0,0.88,0.08,1.23,0.24c0.35,0.16,0.65,0.39,0.88,0.71c0.19,0.25,0.33,0.53,0.4,0.86
		c0.08,0.33,0.12,0.86,0.12,1.6v0.17V62H33.12z"/>
	<path d="M55.85,53.91V62h-2.52v-1.57c-0.36,0.54-0.76,0.94-1.21,1.19C51.66,61.87,51.13,62,50.53,62c-1.04,0-1.87-0.38-2.49-1.14
		c-0.62-0.76-0.93-1.78-0.93-3.05c0-1.27,0.33-2.28,0.98-3.03c0.65-0.75,1.53-1.12,2.63-1.12c0.59,0,1.09,0.12,1.52,0.37
		c0.42,0.25,0.79,0.63,1.09,1.15v-1.28H55.85z M53.43,57.8c0-0.61-0.16-1.09-0.49-1.44c-0.32-0.35-0.77-0.53-1.33-0.53
		c-0.56,0-1,0.18-1.32,0.53c-0.32,0.35-0.48,0.83-0.48,1.45c0,0.61,0.16,1.08,0.49,1.43c0.32,0.35,0.76,0.52,1.32,0.52
		c0.56,0,1-0.17,1.33-0.52C53.27,58.88,53.43,58.4,53.43,57.8z"/>
	<path d="M70.61,62v-8.09h2.59v1.84c0.27-0.67,0.63-1.17,1.1-1.5c0.46-0.33,1.02-0.5,1.68-0.5c0.11,0,0.22,0,0.33,0.01
		c0.11,0.01,0.22,0.02,0.34,0.03l-0.26,2.5c-0.16-0.06-0.33-0.1-0.49-0.12c-0.16-0.03-0.31-0.04-0.46-0.04
		c-0.67,0-1.18,0.2-1.55,0.61c-0.36,0.41-0.54,0.99-0.54,1.74V62H70.61z"/>
	<path d="M94.41,62v-6.15h-1.16v-1.94h1.16v-2.32h2.71v2.32h1.16v1.94h-1.16V62H94.41z"/>
</g>
</svg>
